# xmcd
#
# Track frame offsets: 
#        150
#        12197
#        31390
#        49239
#        69028
#        88416
#
# Disc length: 1384 seconds
#
# Revision: 0
# Processed by: cddbd v1.5.2PL0 Copyright (c) Steve Scherf et al.
# Submitted via: ExactAudioCopyFreeDBPlugin 1.0
#
DISCID=45056606
DTITLE=Baim and Gugun Blues Shelter - Let There Be Light
DYEAR=2014
DGENRE=Blues
TTITLE0=Bank Robber's Blues
TTITLE1=Tap Dancer
TTITLE2=He Got Caught
TTITLE3=It's You
TTITLE4=Don't Say Goodbye
TTITLE5=Me, Myself and I
EXTD=
EXTT0=
EXTT1=
EXTT2=
EXTT3=
EXTT4=
EXTT5=
PLAYORDER=
